#Comment line ignore any data following # character 
#Hierarchical Translation and Rotation (.htr) file 
[Header]	
#Header keywords are followed by a single value 
FileType HTR		#Single word string
DataType HTRS		#Translation followed by rotation and scale data
FileVersion 1		#integer
NumSegments 84		#integer
NumFrames 2		#integer
DataFrameRate 30		#integer, data frame rate in this file
EulerRotationOrder ZYX
CalibrationUnits mm
RotationUnits Degrees
GlobalAxisofGravity Y
BoneLengthAxis Y
ScaleFactor 1.00
[SegmentNames&Hierarchy]
#CHILD	PARENT
MASTER GLOBAL
root MASTER
chest root
L_mid_tent01 root
R_mid_tent01 root
spine01 root
Bip01_Neck chest
L_humerus chest
R_humerus chest
weapon_bone chest
Bip01_Head Bip01_Neck
eye_left_bone Bip01_Head
eye_right_bone Bip01_Head
L_forearm L_humerus
L_front_hand L_forearm
L_weapon_bone L_forearm
L_front_hand01_01 L_front_hand
L_front_hand02_01 L_front_hand
L_front_hand03_01 L_front_hand
L_front_hand01_02 L_front_hand01_01
L_front_hand02_02 L_front_hand02_01
L_front_hand03_02 L_front_hand03_01
R_forearm R_humerus
R_front_hand R_forearm
R_weapon_bone R_forearm
R_front_hand01_01 R_front_hand
R_front_hand02_01 R_front_hand
R_front_hand03_01 R_front_hand
R_front_hand01_02 R_front_hand01_01
R_front_hand02_02 R_front_hand02_01
R_front_hand03_02 R_front_hand03_01
null_rope01_connect L_mid_tent01
Rope1_Seg01 null_rope01_connect
Rope1_Seg02 Rope1_Seg01
Rope1_Seg03 Rope1_Seg02
Rope1_Seg04 Rope1_Seg03
Rope1_Seg05 Rope1_Seg04
Rope1_Seg06 Rope1_Seg05
Rope1_Seg07 Rope1_Seg06
Rope1_Seg09 Rope1_Seg07
L_mid_hand01 Rope1_Seg09
L_mid_hand02 Rope1_Seg09
L_mid_hand03 Rope1_Seg09
null_rope02_connect R_mid_tent01
Rope2_Seg01 null_rope02_connect
Rope2_Seg02 Rope2_Seg01
Rope2_Seg03 Rope2_Seg02
Rope2_Seg04 Rope2_Seg03
Rope2_Seg05 Rope2_Seg04
Rope2_Seg06 Rope2_Seg05
Rope2_Seg07 Rope2_Seg06
Rope2_Seg09 Rope2_Seg07
R_mid_hand01 Rope2_Seg09
R_mid_hand02 Rope2_Seg09
R_mid_hand03 Rope2_Seg09
spine02 spine01
spine03 spine02
pelvis spine03
null_rope03_connect pelvis
null_rope04_connect pelvis
Rope3_Seg01 null_rope03_connect
Rope3_Seg02 Rope3_Seg01
Rope3_Seg03 Rope3_Seg02
Rope3_Seg04 Rope3_Seg03
Rope3_Seg05 Rope3_Seg04
Rope3_Seg06 Rope3_Seg05
Rope3_Seg07 Rope3_Seg06
Rope3_Seg08 Rope3_Seg07
Rope3_Seg09 Rope3_Seg08
R_rear_hand01 Rope3_Seg09
R_rear_hand02 Rope3_Seg09
R_rear_hand03 Rope3_Seg09
Rope4_Seg01 null_rope04_connect
Rope4_Seg02 Rope4_Seg01
Rope4_Seg03 Rope4_Seg02
Rope4_Seg04 Rope4_Seg03
Rope4_Seg05 Rope4_Seg04
Rope4_Seg06 Rope4_Seg05
Rope4_Seg07 Rope4_Seg06
Rope4_Seg08 Rope4_Seg07
Rope4_Seg09 Rope4_Seg08
L_rear_hand01 Rope4_Seg09
L_rear_hand02 Rope4_Seg09
L_rear_hand03 Rope4_Seg09
[BasePosition]
#SegmentName Tx, Ty, Tz, Rx, Ry, Rz, BoneLength
MASTER 0.000000 0.000000 0.000000 -90.000000 0.000000 0.000000 10.000000 
root 0.000000 0.000000 0.000000 0.000000 0.000000 0.000000 10.000000 
chest 0.000000 0.000000 0.000000 0.000000 0.000000 0.000000 10.000000 
L_mid_tent01 0.000000 0.000000 0.000000 0.000000 0.000000 0.000000 10.000000 
R_mid_tent01 0.000000 0.000000 0.000000 0.000000 0.000000 0.000000 10.000000 
spine01 0.000000 0.000000 0.000000 0.000000 0.000000 0.000000 10.000000 
Bip01_Neck 0.000000 0.000000 0.000000 0.000000 0.000000 0.000000 10.000000 
L_humerus 0.000000 0.000000 0.000000 0.000000 0.000000 0.000000 10.000000 
R_humerus 0.000000 0.000000 0.000000 0.000000 0.000000 0.000000 10.000000 
weapon_bone 0.000000 0.000000 0.000000 0.000000 0.000000 0.000000 10.000000 
Bip01_Head 0.000000 0.000000 0.000000 0.000000 0.000000 0.000000 10.000000 
eye_left_bone 0.000000 0.000000 0.000000 0.000000 0.000000 0.000000 10.000000 
eye_right_bone 0.000000 0.000000 0.000000 0.000000 0.000000 0.000000 10.000000 
L_forearm 0.000000 0.000000 0.000000 0.000000 0.000000 0.000000 10.000000 
L_front_hand 0.000000 0.000000 0.000000 0.000000 0.000000 0.000000 10.000000 
L_weapon_bone 0.000000 0.000000 0.000000 0.000000 0.000000 0.000000 10.000000 
L_front_hand01_01 0.000000 0.000000 0.000000 0.000000 0.000000 0.000000 10.000000 
L_front_hand02_01 0.000000 0.000000 0.000000 0.000000 0.000000 0.000000 10.000000 
L_front_hand03_01 0.000000 0.000000 0.000000 0.000000 0.000000 0.000000 10.000000 
L_front_hand01_02 0.000000 0.000000 0.000000 0.000000 0.000000 0.000000 10.000000 
L_front_hand02_02 0.000000 0.000000 0.000000 0.000000 0.000000 0.000000 10.000000 
L_front_hand03_02 0.000000 0.000000 0.000000 0.000000 0.000000 0.000000 10.000000 
R_forearm 0.000000 0.000000 0.000000 0.000000 0.000000 0.000000 10.000000 
R_front_hand 0.000000 0.000000 0.000000 0.000000 0.000000 0.000000 10.000000 
R_weapon_bone 0.000000 0.000000 0.000000 0.000000 0.000000 0.000000 10.000000 
R_front_hand01_01 0.000000 0.000000 0.000000 0.000000 0.000000 0.000000 10.000000 
R_front_hand02_01 0.000000 0.000000 0.000000 0.000000 0.000000 0.000000 10.000000 
R_front_hand03_01 0.000000 0.000000 0.000000 0.000000 0.000000 0.000000 10.000000 
R_front_hand01_02 0.000000 0.000000 0.000000 0.000000 0.000000 0.000000 10.000000 
R_front_hand02_02 0.000000 0.000000 0.000000 0.000000 0.000000 0.000000 10.000000 
R_front_hand03_02 0.000000 0.000000 0.000000 0.000000 0.000000 0.000000 10.000000 
null_rope01_connect 0.000000 0.000000 0.000000 0.000000 0.000000 0.000000 10.000000 
Rope1_Seg01 0.000000 0.000000 0.000000 0.000000 0.000000 0.000000 10.000000 
Rope1_Seg02 0.000000 0.000000 0.000000 0.000000 0.000000 0.000000 10.000000 
Rope1_Seg03 0.000000 0.000000 0.000000 0.000000 0.000000 0.000000 10.000000 
Rope1_Seg04 0.000000 0.000000 0.000000 0.000000 0.000000 0.000000 10.000000 
Rope1_Seg05 0.000000 0.000000 0.000000 0.000000 0.000000 0.000000 10.000000 
Rope1_Seg06 0.000000 0.000000 0.000000 0.000000 0.000000 0.000000 10.000000 
Rope1_Seg07 0.000000 0.000000 0.000000 0.000000 0.000000 0.000000 10.000000 
Rope1_Seg09 0.000000 0.000000 0.000000 0.000000 0.000000 0.000000 10.000000 
L_mid_hand01 0.000000 0.000000 0.000000 0.000000 0.000000 0.000000 10.000000 
L_mid_hand02 0.000000 0.000000 0.000000 0.000000 0.000000 0.000000 10.000000 
L_mid_hand03 0.000000 0.000000 0.000000 0.000000 0.000000 0.000000 10.000000 
null_rope02_connect 0.000000 0.000000 0.000000 0.000000 0.000000 0.000000 10.000000 
Rope2_Seg01 0.000000 0.000000 0.000000 0.000000 0.000000 0.000000 10.000000 
Rope2_Seg02 0.000000 0.000000 0.000000 0.000000 0.000000 0.000000 10.000000 
Rope2_Seg03 0.000000 0.000000 0.000000 0.000000 0.000000 0.000000 10.000000 
Rope2_Seg04 0.000000 0.000000 0.000000 0.000000 0.000000 0.000000 10.000000 
Rope2_Seg05 0.000000 0.000000 0.000000 0.000000 0.000000 0.000000 10.000000 
Rope2_Seg06 0.000000 0.000000 0.000000 0.000000 0.000000 0.000000 10.000000 
Rope2_Seg07 0.000000 0.000000 0.000000 0.000000 0.000000 0.000000 10.000000 
Rope2_Seg09 0.000000 0.000000 0.000000 0.000000 0.000000 0.000000 10.000000 
R_mid_hand01 0.000000 0.000000 0.000000 0.000000 0.000000 0.000000 10.000000 
R_mid_hand02 0.000000 0.000000 0.000000 0.000000 0.000000 0.000000 10.000000 
R_mid_hand03 0.000000 0.000000 0.000000 0.000000 0.000000 0.000000 10.000000 
spine02 0.000000 0.000000 0.000000 0.000000 0.000000 0.000000 10.000000 
spine03 0.000000 0.000000 0.000000 0.000000 0.000000 0.000000 10.000000 
pelvis 0.000000 0.000000 0.000000 0.000000 0.000000 0.000000 10.000000 
null_rope03_connect 0.000000 0.000000 0.000000 0.000000 0.000000 0.000000 10.000000 
null_rope04_connect 0.000000 0.000000 0.000000 0.000000 0.000000 0.000000 10.000000 
Rope3_Seg01 0.000000 0.000000 0.000000 0.000000 0.000000 0.000000 10.000000 
Rope3_Seg02 0.000000 0.000000 0.000000 0.000000 0.000000 0.000000 10.000000 
Rope3_Seg03 0.000000 0.000000 0.000000 0.000000 0.000000 0.000000 10.000000 
Rope3_Seg04 0.000000 0.000000 0.000000 0.000000 0.000000 0.000000 10.000000 
Rope3_Seg05 0.000000 0.000000 0.000000 0.000000 0.000000 0.000000 10.000000 
Rope3_Seg06 0.000000 0.000000 0.000000 0.000000 0.000000 0.000000 10.000000 
Rope3_Seg07 0.000000 0.000000 0.000000 0.000000 0.000000 0.000000 10.000000 
Rope3_Seg08 0.000000 0.000000 0.000000 0.000000 0.000000 0.000000 10.000000 
Rope3_Seg09 0.000000 0.000000 0.000000 0.000000 0.000000 0.000000 10.000000 
R_rear_hand01 0.000000 0.000000 0.000000 0.000000 0.000000 0.000000 10.000000 
R_rear_hand02 0.000000 0.000000 0.000000 0.000000 0.000000 0.000000 10.000000 
R_rear_hand03 0.000000 0.000000 0.000000 0.000000 0.000000 0.000000 10.000000 
Rope4_Seg01 0.000000 0.000000 0.000000 0.000000 0.000000 0.000000 10.000000 
Rope4_Seg02 0.000000 0.000000 0.000000 0.000000 0.000000 0.000000 10.000000 
Rope4_Seg03 0.000000 0.000000 0.000000 0.000000 0.000000 0.000000 10.000000 
Rope4_Seg04 0.000000 0.000000 0.000000 0.000000 0.000000 0.000000 10.000000 
Rope4_Seg05 0.000000 0.000000 0.000000 0.000000 0.000000 0.000000 10.000000 
Rope4_Seg06 0.000000 0.000000 0.000000 0.000000 0.000000 0.000000 10.000000 
Rope4_Seg07 0.000000 0.000000 0.000000 0.000000 0.000000 0.000000 10.000000 
Rope4_Seg08 0.000000 0.000000 0.000000 0.000000 0.000000 0.000000 10.000000 
Rope4_Seg09 0.000000 0.000000 0.000000 0.000000 0.000000 0.000000 10.000000 
L_rear_hand01 0.000000 0.000000 0.000000 0.000000 0.000000 0.000000 10.000000 
L_rear_hand02 0.000000 0.000000 0.000000 0.000000 0.000000 0.000000 10.000000 
L_rear_hand03 0.000000 0.000000 0.000000 0.000000 0.000000 0.000000 10.000000 
#Beginning of Data. Separated by tabs
#Fr	Tx	Ty	Tz	Rx	Ry	Rz	SF
[MASTER]
29 -0.000354 2411.683350 0.000000 0.001660 0.001660 0.001660 2411.683350
30 -0.000354 2411.683350 0.000000 0.001660 0.001660 0.001660 2411.683350
[root]
29 -862.507996 219.044342 1322.605713 -107.241188 -34.737778 -92.746544 1594.109863
30 -862.866882 191.640320 1336.322510 -107.011497 -34.189362 -92.958893 1602.193237
[chest]
29 -84.512650 -34.090519 0.000000 -2.073876 0.900914 171.510605 91.129311
30 -84.512650 -34.090519 0.000000 -2.112760 0.434893 171.682709 91.129311
[L_mid_tent01]
29 27.640236 21.982306 -252.107269 3.548898 61.339401 72.872719 254.568802
30 27.648413 21.977627 -252.159775 1.267617 61.355946 70.227333 254.621292
[R_mid_tent01]
29 23.228794 24.509907 226.238495 171.927734 -26.149124 55.992489 228.744751
30 23.228794 24.509907 226.238495 171.933167 -26.215611 55.986687 228.744751
[spine01]
29 -0.361383 -0.195265 0.000000 0.001869 0.001420 15.534141 0.410763
30 -0.361383 -0.195265 0.000000 0.001869 0.001420 15.534141 0.410763
[Bip01_Neck]
29 165.484543 71.581718 0.000119 175.896118 1.177290 24.871183 180.302734
30 165.484543 71.581718 0.000119 175.896118 1.177290 24.871183 180.302734
[L_humerus]
29 -13.983130 -135.272980 -120.471481 -145.749817 40.724907 -58.000996 181.680161
30 -13.983130 -135.272980 -120.471481 -145.363022 40.681686 -56.700306 181.680161
[R_humerus]
29 -13.983309 -135.273102 125.287651 163.594406 -42.267262 -64.745361 184.909012
30 -13.983309 -135.273102 125.287651 162.626144 -42.325066 -63.157627 184.909012
[weapon_bone]
29 235.964890 -300.705902 0.000000 0.000000 -89.951546 -128.212341 382.234833
30 235.964890 -300.705902 0.000000 0.000000 -89.951546 -128.212341 382.234833
[Bip01_Head]
29 186.019745 185.150146 15.270386 3.261672 -10.197746 -55.742752 262.901337
30 186.019730 185.150146 15.270385 3.261672 -10.197746 -55.742752 262.901337
[eye_left_bone]
29 -24.626970 125.451866 -64.772606 0.000000 -90.000000 -99.840431 143.318359
30 -24.626970 125.451866 -64.772606 0.000000 -90.000000 -99.840431 143.318359
[eye_right_bone]
29 -24.626970 125.451866 64.327362 0.000000 -89.960434 80.159386 143.117676
30 -24.626970 125.451866 64.327362 0.000000 -89.960434 80.159386 143.117676
[L_forearm]
29 322.776093 0.000000 -0.000119 0.000480 0.002298 -66.415489 322.776093
30 322.776093 0.000000 -0.000119 0.000465 0.002301 -67.132202 322.776093
[L_front_hand]
29 241.149185 -0.042021 -3.300071 -178.667953 -1.835447 -27.422350 241.171753
30 241.149185 -0.042021 -3.300071 -178.667953 -1.835447 -27.422350 241.171753
[L_weapon_bone]
29 156.183838 0.000000 0.000000 0.000014 0.000007 0.000001 156.183838
30 156.183838 0.000000 0.000000 0.000014 0.000007 0.000001 156.183838
[L_front_hand01_01]
29 86.095154 20.947098 -0.655860 -0.366594 -0.477154 75.385574 88.609184
30 86.095154 20.947098 -0.655860 -0.366594 -0.477154 75.385574 88.609184
[L_front_hand02_01]
29 86.935165 -11.437475 24.513514 154.403519 -59.888931 -61.371990 91.046425
30 86.935165 -11.437475 24.513514 154.403519 -59.888931 -61.371990 91.046425
[L_front_hand03_01]
29 86.637497 -14.123976 -20.424902 -153.913849 58.118122 -62.702866 90.126129
30 86.637497 -14.123976 -20.424902 -153.913849 58.118122 -62.702866 90.126129
[L_front_hand01_02]
29 71.020905 -0.000179 0.000030 0.000334 -0.002323 -106.379684 71.020905
30 71.020905 -0.000179 0.000030 0.000334 -0.002323 -106.379684 71.020905
[L_front_hand02_02]
29 71.020927 -0.000119 0.000060 0.000334 -0.002323 -106.379684 71.020927
30 71.020927 -0.000119 0.000060 0.000334 -0.002323 -106.379684 71.020927
[L_front_hand03_02]
29 71.020905 -0.000060 0.000060 0.000334 -0.002323 -106.379684 71.020905
30 71.020905 -0.000060 0.000060 0.000334 -0.002323 -106.379684 71.020905
[R_forearm]
29 322.776428 -0.000060 0.000030 0.166079 -0.131181 -52.648312 322.776428
30 322.776428 -0.000060 0.000030 0.167080 -0.129903 -53.527328 322.776428
[R_front_hand]
29 238.847015 -0.006795 2.210259 -1.531694 0.790216 -51.443054 238.857239
30 238.847015 -0.006795 2.210259 -1.531694 0.790216 -51.443054 238.857239
[R_weapon_bone]
29 155.664093 0.002503 -0.000030 0.003487 0.001180 -90.988930 155.664078
30 155.664093 0.002503 -0.000030 0.003487 0.001180 -90.988930 155.664078
[R_front_hand01_01]
29 87.624611 14.231146 22.918642 -154.633499 -59.950619 61.746044 91.683487
30 87.624611 14.231146 22.918642 -154.633484 -59.950607 61.746033 91.683487
[R_front_hand02_01]
29 89.356956 14.367283 -19.491137 154.602661 58.302849 63.744389 92.579636
30 89.356956 14.367283 -19.491137 154.602661 58.302849 63.744389 92.579636
[R_front_hand03_01]
29 87.286232 -22.307278 -0.143439 0.162155 -0.423168 -75.767921 90.091743
30 87.286232 -22.307278 -0.143439 0.162155 -0.423168 -75.767921 90.091743
[R_front_hand01_02]
29 71.020905 0.000060 0.000119 0.002323 -0.000334 106.381714 71.020905
30 71.020905 0.000060 0.000119 0.002323 -0.000334 106.381714 71.020905
[R_front_hand02_02]
29 71.020844 -0.000030 -0.000119 0.002323 -0.000334 106.381714 71.020836
30 71.020844 -0.000030 -0.000119 0.002323 -0.000334 106.381714 71.020836
[R_front_hand03_02]
29 71.020905 0.000000 0.000030 0.002323 -0.000334 106.381714 71.020905
30 71.020905 0.000000 0.000030 0.002323 -0.000334 106.381714 71.020905
[null_rope01_connect]
29 328.732483 0.000000 -0.000238 -125.994904 -10.171350 -177.300385 328.732483
30 328.732483 0.000000 -0.000238 -126.450668 -10.260081 -176.262527 328.732483
[Rope1_Seg01]
29 1.615492 -7.291107 -2.858211 94.231735 -9.295116 -156.829895 7.996213
30 1.642478 -7.258301 -2.930341 97.893356 -7.355467 -160.303146 7.997972
[Rope1_Seg02]
29 139.999863 -0.000179 0.000000 6.921776 -16.467434 1.667395 139.999863
30 139.999863 -0.000179 0.000000 6.522199 -17.660652 2.426774 139.999863
[Rope1_Seg03]
29 139.999924 0.000060 -0.000060 -3.480705 -45.640385 16.058056 139.999924
30 139.999924 0.000060 -0.000060 -5.317465 -44.636074 17.681309 139.999924
[Rope1_Seg04]
29 139.999924 -0.000060 -0.000119 -16.550310 -33.829796 17.222866 139.999924
30 139.999924 -0.000060 -0.000119 -15.453909 -31.408875 16.282661 139.999924
[Rope1_Seg05]
29 139.999832 0.000119 -0.000060 -15.403062 -14.144525 -3.387658 139.999832
30 139.999832 0.000119 -0.000060 -15.611082 -13.862892 -3.747610 139.999832
[Rope1_Seg06]
29 139.999954 0.000119 -0.000060 -22.303854 -15.176921 -17.680330 139.999954
30 139.999954 0.000119 -0.000060 -21.444416 -13.996613 -17.990414 139.999954
[Rope1_Seg07]
29 139.999985 0.000060 0.000000 -11.778325 -6.445446 -18.842808 139.999985
30 139.999985 0.000060 0.000000 -10.914082 -5.662529 -17.674540 139.999985
[Rope1_Seg09]
29 121.602913 0.000119 -0.000089 -89.793175 -1.359789 0.847147 121.602913
30 121.602913 0.000119 -0.000089 -89.793175 -1.359789 0.847147 121.602913
[L_mid_hand01]
29 103.859421 1.038730 8.195221 116.294914 -23.111715 -31.758038 104.187431
30 103.859421 1.038730 8.195221 116.294914 -23.111713 -31.758030 104.187431
[L_mid_hand02]
29 105.572853 -4.139662 -10.864139 -144.219818 17.447464 -35.360508 106.211075
30 105.572853 -4.139662 -10.864139 -144.219833 17.447466 -35.360519 106.211075
[L_mid_hand03]
29 104.641464 17.579376 -3.913581 -17.830780 17.153103 31.982925 106.179977
30 104.641464 17.579376 -3.913581 -17.830780 17.153103 31.982925 106.179977
[null_rope02_connect]
29 328.732849 0.000179 -0.000119 -51.966251 71.101746 60.933533 328.732849
30 328.732849 0.000179 -0.000119 -53.025360 71.259338 60.388565 328.732849
[Rope2_Seg01]
29 0.000062 0.000238 0.000028 -37.846840 43.566849 68.476151 0.000248
30 0.000062 0.000241 0.000030 -37.098763 45.905228 69.470497 0.000251
[Rope2_Seg02]
29 139.999741 -0.000060 -0.000119 -0.000584 3.236567 0.095651 139.999756
30 139.999741 -0.000060 -0.000119 -0.011806 2.984237 -0.137176 139.999756
[Rope2_Seg03]
29 140.000107 0.000030 0.000000 -0.121060 4.711442 0.145179 140.000107
30 140.000107 0.000030 0.000000 -0.109638 4.315137 -0.195491 140.000107
[Rope2_Seg04]
29 139.999802 0.000000 -0.000060 -0.543777 7.955850 -0.001444 139.999802
30 139.999802 0.000000 -0.000060 -0.440189 7.180802 -0.486818 139.999802
[Rope2_Seg05]
29 139.999985 -0.000060 0.000119 -3.418548 20.189665 -1.572039 139.999985
30 139.999985 -0.000060 0.000119 -2.902312 19.717384 -3.415506 139.999985
[Rope2_Seg06]
29 139.999893 -0.000030 -0.000119 -6.562861 8.251105 7.560442 139.999893
30 139.999893 -0.000030 -0.000119 -5.864219 7.558127 6.616074 139.999893
[Rope2_Seg07]
29 139.999893 0.000060 -0.000060 -3.028429 -2.436634 5.967342 139.999893
30 139.999893 0.000060 -0.000060 -2.618742 -4.991291 6.417522 139.999893
[Rope2_Seg09]
29 121.338966 0.000089 -0.000060 33.793236 -1.359788 -0.847141 121.338966
30 121.338966 0.000089 -0.000060 33.793236 -1.359788 -0.847141 121.338966
[R_mid_hand01]
29 104.680779 11.144459 -10.335981 -41.523792 25.424656 28.595957 105.778534
30 104.680779 11.144459 -10.335981 -41.523792 25.424656 28.595957 105.778534
[R_mid_hand02]
29 104.070427 2.443552 8.231699 72.847389 -32.746803 10.013901 104.424065
30 104.070427 2.443552 8.231699 72.847389 -32.746803 10.013901 104.424065
[R_mid_hand03]
29 106.028137 -11.221827 -5.996406 -167.901306 10.259192 -37.009720 106.788818
30 106.028137 -11.221827 -5.996406 -167.901306 10.259192 -37.009720 106.788818
[spine02]
29 129.756927 0.001550 0.000119 -0.245322 -4.052059 -4.355546 129.756927
30 129.756927 0.001550 0.000119 -0.245322 -4.052060 -4.355547 129.756927
[spine03]
29 78.613907 0.087280 -4.898811 0.369659 4.260734 -4.885720 78.766441
30 78.613914 0.087280 -4.898811 0.369659 4.260734 -4.885720 78.766449
[pelvis]
29 169.435242 0.051022 0.000000 -0.010007 -0.191417 -1.897554 169.435257
30 169.435242 0.051022 0.000000 -0.010007 -0.191417 -1.897554 169.435257
[null_rope03_connect]
29 -1.257226 -2.466202 137.391083 -138.281403 -71.502197 -101.695381 137.418976
30 -1.257226 -2.466202 137.391083 -138.204987 -71.607796 -102.343552 137.418976
[null_rope04_connect]
29 -1.259640 -2.480268 -137.844437 -138.281403 -71.502197 -101.695381 137.872513
30 -1.259640 -2.480268 -137.844437 -138.204987 -71.607796 -102.343552 137.872513
[Rope3_Seg01]
29 -0.000008 0.000114 -0.000057 -19.722687 -11.422152 16.051575 0.000128
30 -0.000008 0.000118 -0.000059 -19.770296 -4.507348 21.483150 0.000132
[Rope3_Seg02]
29 139.999924 -0.000119 0.000060 4.049342 1.855210 4.161294 139.999924
30 139.999924 -0.000119 0.000060 1.636504 1.935579 3.898515 139.999924
[Rope3_Seg03]
29 139.999924 -0.000119 0.000119 2.252329 3.211955 6.045423 139.999924
30 139.999924 -0.000119 0.000119 1.464805 2.970813 5.608063 139.999924
[Rope3_Seg04]
29 139.999924 0.000119 0.000000 1.673319 5.609842 9.751807 139.999924
30 139.999924 0.000119 0.000000 1.405296 4.861413 8.723063 139.999924
[Rope3_Seg05]
29 139.999924 -0.000238 0.000060 3.722775 12.638412 22.242239 139.999924
30 139.999924 -0.000238 0.000060 3.145061 10.734347 19.483862 139.999924
[Rope3_Seg06]
29 139.999893 -0.000119 -0.000060 2.528903 12.005787 19.155363 139.999893
30 139.999893 -0.000119 -0.000060 2.232618 10.610813 17.397776 139.999893
[Rope3_Seg07]
29 139.999771 0.000060 -0.000119 0.318307 2.618080 1.948248 139.999771
30 139.999771 0.000060 -0.000119 0.303555 1.711182 0.673938 139.999771
[Rope3_Seg08]
29 139.999985 -0.000060 0.000000 0.513704 3.094837 3.197213 139.999985
30 139.999985 -0.000060 0.000000 0.472511 2.332411 2.227561 139.999985
[Rope3_Seg09]
29 90.185997 -0.000179 -0.000060 89.793228 -1.359877 -0.847183 90.185997
30 90.185997 -0.000179 -0.000060 89.793228 -1.359877 -0.847183 90.185997
[R_rear_hand01]
29 103.366196 -6.073594 -10.757982 -158.627975 33.644123 -23.327248 104.101845
30 103.366196 -6.073594 -10.757982 -158.627975 33.644127 -23.327253 104.101845
[R_rear_hand02]
29 100.509819 12.039542 -7.992327 -36.327789 26.496237 23.332445 101.543350
30 100.509819 12.039542 -7.992327 -36.327797 26.496241 23.332451 101.543350
[R_rear_hand03]
29 101.539970 5.215704 5.435467 73.054993 -27.152538 27.950705 101.819031
30 101.539970 5.215704 5.435467 73.054977 -27.152536 27.950705 101.819031
[Rope4_Seg01]
29 -0.000035 0.000031 0.000124 82.087677 -36.756237 -152.181534 0.000133
30 -0.000034 0.000031 0.000123 87.034515 -38.005524 -155.878815 0.000131
[Rope4_Seg02]
29 139.999985 0.000060 0.000119 14.874161 -11.815020 6.392218 139.999985
30 139.999985 0.000060 0.000119 16.274954 -11.484174 6.786464 139.999985
[Rope4_Seg03]
29 139.999924 0.000000 -0.000238 27.633377 -13.835078 13.713741 139.999924
30 139.999924 0.000000 -0.000238 28.131298 -12.643608 14.168604 139.999924
[Rope4_Seg04]
29 139.999985 0.000000 0.000119 22.070192 -3.401453 19.443842 139.999985
30 139.999985 0.000000 0.000119 20.748238 -1.881865 18.998096 139.999985
[Rope4_Seg05]
29 139.999802 -0.000060 -0.000119 12.173824 0.284272 15.612964 139.999802
30 139.999802 -0.000060 -0.000119 11.613327 0.838602 15.404450 139.999802
[Rope4_Seg06]
29 139.999924 0.000000 0.000060 12.382373 -0.235100 22.928459 139.999924
30 139.999924 0.000000 0.000060 11.815158 0.140862 22.515091 139.999924
[Rope4_Seg07]
29 139.999802 0.000000 0.000000 6.582608 4.462631 21.660709 139.999802
30 139.999802 0.000000 0.000000 6.203653 4.462533 20.931047 139.999802
[Rope4_Seg08]
29 139.999924 0.000000 0.000119 -0.172920 3.792602 10.456544 139.999924
30 139.999924 0.000000 0.000119 -0.230478 3.732157 10.230995 139.999924
[Rope4_Seg09]
29 90.185791 0.000060 0.000060 -135.617828 2.228885 0.850567 90.185791
30 90.185791 0.000060 0.000060 -135.617828 2.228885 0.850567 90.185791
[L_rear_hand01]
29 101.696655 -8.392275 -7.654577 -33.685814 -15.212527 149.017090 102.329041
30 101.696655 -8.392275 -7.654577 -33.685818 -15.212530 149.017090 102.329041
[L_rear_hand02]
29 102.726799 -1.568258 5.773216 83.407906 30.330435 172.796509 102.900848
30 102.726799 -1.568258 5.773216 83.407906 30.330435 172.796509 102.900848
[L_rear_hand03]
29 104.552910 9.721220 -10.420293 -160.801224 -15.606591 -150.211823 105.519653
30 104.552910 9.721220 -10.420293 -160.801239 -15.606593 -150.211823 105.519653
